<mxfile host="app.diagrams.net" modified="2023-01-06T06:39:22.778Z" agent="5.0 (Windows NT 10.0; Win64; x64) AppleWebKit/537.36 (KHTML, like Gecko) Chrome/108.0.0.0 Safari/537.36" version="20.8.1" etag="aTLwgQa1ZetSI0EzMayt" type="github">
  <diagram id="a8aPShCq_UQid2ik2_DB" name="第 1 页">
    <mxGraphModel dx="1434" dy="764" grid="1" gridSize="10" guides="1" tooltips="1" connect="1" arrows="1" fold="1" page="1" pageScale="1" pageWidth="2500" pageHeight="1600" math="0" shadow="0">
      <root>
        <mxCell id="0" />
        <mxCell id="1" parent="0" />
        <mxCell id="IvCIBFCN0AuGguPWQZP_-1" value="" style="shape=flexArrow;endArrow=classic;html=1;rounded=0;sketch=1;curveFitting=1;jiggle=2;fillColor=#fff2cc;strokeColor=#d6b656;" edge="1" parent="1">
          <mxGeometry width="50" height="50" relative="1" as="geometry">
            <mxPoint x="200" y="190" as="sourcePoint" />
            <mxPoint x="200" y="700" as="targetPoint" />
          </mxGeometry>
        </mxCell>
        <mxCell id="IvCIBFCN0AuGguPWQZP_-6" value="" style="edgeStyle=orthogonalEdgeStyle;rounded=0;orthogonalLoop=1;jettySize=auto;html=1;fillColor=#dae8fc;strokeColor=#6c8ebf;sketch=1;curveFitting=1;jiggle=2;" edge="1" parent="1" source="IvCIBFCN0AuGguPWQZP_-2" target="IvCIBFCN0AuGguPWQZP_-5">
          <mxGeometry relative="1" as="geometry" />
        </mxCell>
        <mxCell id="IvCIBFCN0AuGguPWQZP_-2" value="线程A" style="rounded=0;whiteSpace=wrap;html=1;fillColor=#dae8fc;strokeColor=#6c8ebf;sketch=1;curveFitting=1;jiggle=2;" vertex="1" parent="1">
          <mxGeometry x="260" y="200" width="100" height="30" as="geometry" />
        </mxCell>
        <mxCell id="IvCIBFCN0AuGguPWQZP_-17" style="edgeStyle=orthogonalEdgeStyle;rounded=0;orthogonalLoop=1;jettySize=auto;html=1;exitX=0.5;exitY=1;exitDx=0;exitDy=0;fillColor=#ffe6cc;strokeColor=#d79b00;sketch=1;curveFitting=1;jiggle=2;" edge="1" parent="1" source="IvCIBFCN0AuGguPWQZP_-3" target="IvCIBFCN0AuGguPWQZP_-13">
          <mxGeometry relative="1" as="geometry" />
        </mxCell>
        <mxCell id="IvCIBFCN0AuGguPWQZP_-3" value="线程B" style="rounded=0;whiteSpace=wrap;html=1;fillColor=#ffe6cc;strokeColor=#d79b00;sketch=1;curveFitting=1;jiggle=2;" vertex="1" parent="1">
          <mxGeometry x="430" y="200" width="100" height="30" as="geometry" />
        </mxCell>
        <mxCell id="IvCIBFCN0AuGguPWQZP_-8" value="" style="edgeStyle=orthogonalEdgeStyle;rounded=0;orthogonalLoop=1;jettySize=auto;html=1;fillColor=#dae8fc;strokeColor=#6c8ebf;sketch=1;curveFitting=1;jiggle=2;" edge="1" parent="1" source="IvCIBFCN0AuGguPWQZP_-5" target="IvCIBFCN0AuGguPWQZP_-7">
          <mxGeometry relative="1" as="geometry" />
        </mxCell>
        <mxCell id="IvCIBFCN0AuGguPWQZP_-5" value="删除缓存" style="rounded=0;whiteSpace=wrap;html=1;fillColor=#dae8fc;strokeColor=#6c8ebf;sketch=1;curveFitting=1;jiggle=2;" vertex="1" parent="1">
          <mxGeometry x="260" y="280" width="100" height="30" as="geometry" />
        </mxCell>
        <mxCell id="IvCIBFCN0AuGguPWQZP_-10" value="" style="edgeStyle=orthogonalEdgeStyle;rounded=0;orthogonalLoop=1;jettySize=auto;html=1;" edge="1" parent="1" source="IvCIBFCN0AuGguPWQZP_-7" target="IvCIBFCN0AuGguPWQZP_-9">
          <mxGeometry relative="1" as="geometry" />
        </mxCell>
        <mxCell id="IvCIBFCN0AuGguPWQZP_-7" value="更新数据库" style="rounded=0;whiteSpace=wrap;html=1;fillColor=#dae8fc;strokeColor=#6c8ebf;sketch=1;curveFitting=1;jiggle=2;" vertex="1" parent="1">
          <mxGeometry x="260" y="350" width="100" height="30" as="geometry" />
        </mxCell>
        <mxCell id="IvCIBFCN0AuGguPWQZP_-12" value="" style="edgeStyle=orthogonalEdgeStyle;rounded=0;orthogonalLoop=1;jettySize=auto;html=1;fillColor=#dae8fc;strokeColor=#6c8ebf;sketch=1;curveFitting=1;jiggle=2;" edge="1" parent="1" source="IvCIBFCN0AuGguPWQZP_-9" target="IvCIBFCN0AuGguPWQZP_-11">
          <mxGeometry relative="1" as="geometry" />
        </mxCell>
        <mxCell id="IvCIBFCN0AuGguPWQZP_-9" value="延时" style="rounded=0;whiteSpace=wrap;html=1;fillColor=#dae8fc;strokeColor=#6c8ebf;sketch=1;curveFitting=1;jiggle=2;" vertex="1" parent="1">
          <mxGeometry x="260" y="400" width="100" height="80" as="geometry" />
        </mxCell>
        <mxCell id="IvCIBFCN0AuGguPWQZP_-11" value="删除缓存" style="rounded=0;whiteSpace=wrap;html=1;fillColor=#dae8fc;strokeColor=#6c8ebf;sketch=1;curveFitting=1;jiggle=2;" vertex="1" parent="1">
          <mxGeometry x="260" y="510" width="100" height="30" as="geometry" />
        </mxCell>
        <mxCell id="IvCIBFCN0AuGguPWQZP_-15" value="" style="edgeStyle=orthogonalEdgeStyle;rounded=0;orthogonalLoop=1;jettySize=auto;html=1;sketch=1;curveFitting=1;jiggle=2;fillColor=#ffe6cc;strokeColor=#d79b00;" edge="1" parent="1" source="IvCIBFCN0AuGguPWQZP_-13" target="IvCIBFCN0AuGguPWQZP_-14">
          <mxGeometry relative="1" as="geometry" />
        </mxCell>
        <mxCell id="IvCIBFCN0AuGguPWQZP_-13" value="读取老数据" style="rounded=0;whiteSpace=wrap;html=1;fillColor=#ffe6cc;strokeColor=#d79b00;sketch=1;curveFitting=1;jiggle=2;" vertex="1" parent="1">
          <mxGeometry x="430" y="310" width="100" height="30" as="geometry" />
        </mxCell>
        <mxCell id="IvCIBFCN0AuGguPWQZP_-14" value="更新缓存" style="rounded=0;whiteSpace=wrap;html=1;fillColor=#ffe6cc;strokeColor=#d79b00;sketch=1;curveFitting=1;jiggle=2;" vertex="1" parent="1">
          <mxGeometry x="430" y="370" width="100" height="30" as="geometry" />
        </mxCell>
        <mxCell id="IvCIBFCN0AuGguPWQZP_-19" value="" style="edgeStyle=orthogonalEdgeStyle;rounded=0;orthogonalLoop=1;jettySize=auto;html=1;fillColor=#e1d5e7;strokeColor=#9673a6;sketch=1;curveFitting=1;jiggle=2;" edge="1" parent="1" source="IvCIBFCN0AuGguPWQZP_-16" target="IvCIBFCN0AuGguPWQZP_-18">
          <mxGeometry relative="1" as="geometry" />
        </mxCell>
        <mxCell id="IvCIBFCN0AuGguPWQZP_-16" value="线程C" style="rounded=0;whiteSpace=wrap;html=1;fillColor=#e1d5e7;strokeColor=#9673a6;sketch=1;curveFitting=1;jiggle=2;" vertex="1" parent="1">
          <mxGeometry x="600" y="200" width="100" height="30" as="geometry" />
        </mxCell>
        <mxCell id="IvCIBFCN0AuGguPWQZP_-18" value="读取缓存" style="rounded=0;whiteSpace=wrap;html=1;fillColor=#e1d5e7;strokeColor=#9673a6;sketch=1;curveFitting=1;jiggle=2;" vertex="1" parent="1">
          <mxGeometry x="600" y="410" width="100" height="90" as="geometry" />
        </mxCell>
        <mxCell id="IvCIBFCN0AuGguPWQZP_-20" value="线程C将长时间读到旧数据" style="rounded=0;whiteSpace=wrap;html=1;fillColor=#f8cecc;strokeColor=#b85450;glass=1;sketch=1;curveFitting=1;jiggle=2;" vertex="1" parent="1">
          <mxGeometry x="260" y="560" width="450" height="30" as="geometry" />
        </mxCell>
        <mxCell id="IvCIBFCN0AuGguPWQZP_-21" value="&lt;font style=&quot;font-size: 14px;&quot;&gt;极端情况下，延时双删无法避免某个线程长时间读取老数据问题，但是通常删除缓存与更新数据库之间时间间隔短，出现这种场景的概率很小&lt;/font&gt;" style="text;html=1;strokeColor=none;fillColor=none;align=center;verticalAlign=middle;whiteSpace=wrap;rounded=0;glass=1;sketch=1;" vertex="1" parent="1">
          <mxGeometry x="130" y="100" width="470" height="30" as="geometry" />
        </mxCell>
        <mxCell id="IvCIBFCN0AuGguPWQZP_-23" value="采用延时双删，能够保证最终一致性，尽可能的减少了查询老数据场景出现的可能" style="text;html=1;strokeColor=none;fillColor=none;align=center;verticalAlign=middle;whiteSpace=wrap;rounded=0;glass=1;sketch=1;fontSize=14;" vertex="1" parent="1">
          <mxGeometry x="250" y="740" width="550" height="30" as="geometry" />
        </mxCell>
        <mxCell id="IvCIBFCN0AuGguPWQZP_-27" value="" style="edgeStyle=orthogonalEdgeStyle;rounded=0;sketch=1;orthogonalLoop=1;jettySize=auto;html=1;fontSize=14;" edge="1" parent="1" source="IvCIBFCN0AuGguPWQZP_-25" target="IvCIBFCN0AuGguPWQZP_-26">
          <mxGeometry relative="1" as="geometry" />
        </mxCell>
        <mxCell id="IvCIBFCN0AuGguPWQZP_-25" value="线程D" style="rounded=0;whiteSpace=wrap;html=1;sketch=1;curveFitting=1;jiggle=2;" vertex="1" parent="1">
          <mxGeometry x="790" y="200" width="100" height="30" as="geometry" />
        </mxCell>
        <mxCell id="IvCIBFCN0AuGguPWQZP_-30" value="" style="edgeStyle=orthogonalEdgeStyle;rounded=0;sketch=1;orthogonalLoop=1;jettySize=auto;html=1;fontSize=14;" edge="1" parent="1" source="IvCIBFCN0AuGguPWQZP_-26" target="IvCIBFCN0AuGguPWQZP_-29">
          <mxGeometry relative="1" as="geometry" />
        </mxCell>
        <mxCell id="IvCIBFCN0AuGguPWQZP_-26" value="读取老数据" style="rounded=0;whiteSpace=wrap;html=1;sketch=1;curveFitting=1;jiggle=2;" vertex="1" parent="1">
          <mxGeometry x="790" y="340" width="100" height="30" as="geometry" />
        </mxCell>
        <mxCell id="IvCIBFCN0AuGguPWQZP_-29" value="更新缓存" style="rounded=0;whiteSpace=wrap;html=1;sketch=1;curveFitting=1;jiggle=2;" vertex="1" parent="1">
          <mxGeometry x="790" y="450" width="100" height="30" as="geometry" />
        </mxCell>
        <mxCell id="IvCIBFCN0AuGguPWQZP_-31" value="延时双删解决了双删无法保证最终一致性的问题。延时的时间取决于读取数据的时间（线程D）" style="rounded=0;whiteSpace=wrap;html=1;fillColor=#f5f5f5;strokeColor=#666666;glass=1;sketch=1;curveFitting=1;jiggle=2;fontColor=#333333;" vertex="1" parent="1">
          <mxGeometry x="260" y="620" width="660" height="30" as="geometry" />
        </mxCell>
      </root>
    </mxGraphModel>
  </diagram>
</mxfile>
